# xmcd CD database file
# 
# Track frame offsets:
# 	150
# 	10881
# 	25961
# 	39109
# 	57199
# 	67514
# 	77026
# 	89944
# 	103934
# 	115769
# 	131516
# 	142959
# 	155551
# 	165856
# 	178614
# 	192329
# 	208318
# 	224634
# 	238549
# 	251652
# 
# Disc length: 3653 seconds
# 
# Submitted via: Nero 6, 0, 0, 28
# 
# Revision: 0
# Processed by: cddbd v1.4PL0 Copyright (c) Steve Scherf et al.
#
DISCID=140e4314
DTITLE=Various Artist - Country Roads Vol 8
DYEAR=1900
DGENRE=
TTITLE0=The Everly Brothers - Till I Kissed You
TTITLE1=The Amazing Rhythm Aces - Third Rate Romance 1994
TTITLE2=Lynn Anderson - Rose Garden
TTITLE3=Ricky Nelson - Garden Party
TTITLE4=George Hamilton IV - Abilene
TTITLE5=Merle Haggard - The Ballad Of Bonnie And Clyde
TTITLE6=Tammy Wynette - Womanhood
TTITLE7=Conway Twitty - Fifteen Years Ago
TTITLE8=Charlie Rich - Rollin' With The Flow
TTITLE9=Mickey Gilley - Fool For Your Love
TTITLE10=Sandy Pose - Single Girl
TTITLE11=Bill Anderson - Po' Folks
TTITLE12=Loretta Lynn - Out Of My Head And Back In My Bed (live)
TTITLE13=Porter Wagoner - Carroll County Accident
TTITLE14=Billy Walker - Funny How Time Slips Away
TTITLE15=Brenda Lee - Johnny One Time (Live)
TTITLE16=Charley Pride - Me And Bobby McGee
TTITLE17=Roy Clark - Honeymoon Feeling
TTITLE18=Nancy Peppers - Watch Me Fall Apart
TTITLE19=Ed Bruce - The Last Cowboy Song
EXTD=
EXTT0=
EXTT1=
EXTT2=
EXTT3=
EXTT4=
EXTT5=
EXTT6=
EXTT7=
EXTT8=
EXTT9=
EXTT10=
EXTT11=
EXTT12=
EXTT13=
EXTT14=
EXTT15=
EXTT16=
EXTT17=
EXTT18=
EXTT19=
PLAYORDER=
